<svg width="40" height="50" viewBox="0 0 40 50" fill="none" xmlns="http://www.w3.org/2000/svg">
<g clip-path="url(#clip0)">
<path d="M23.6367 36.3031C24.285 35.2584 25.0011 34.2572 25.7802 33.306V30.6881C23.4042 31.2525 23.0956 31.4326 22.3408 31.4326C21.5348 31.4284 20.7512 31.1664 20.1047 30.6849C19.4583 30.2035 18.9828 29.5279 18.7478 28.7568C18.6949 28.5806 18.7059 28.3912 18.7789 28.2223C18.8519 28.0533 18.9822 27.9156 19.1468 27.8333L20.8984 26.9581C20.631 26.3146 20.3742 25.8931 18.6581 26.1404C18.4729 26.167 18.2842 26.1263 18.1265 26.0256C17.9688 25.9249 17.8525 25.7709 17.7987 25.5917L17.3047 23.947C15.2178 22.5738 14.7656 22.6 14.6596 22.0142C14.5509 21.4141 14.9381 21.3677 17.1862 18.3423V12.5H38.2799C38.1261 33.353 38.6436 33.07 37.8782 33.4954C37.5864 33.6575 30.6592 37.4661 24.3025 37.4993C24.1626 37.5 24.0251 37.4631 23.9044 37.3926C23.7836 37.322 23.684 37.2203 23.616 37.098C23.548 36.9758 23.514 36.8376 23.5176 36.6978C23.5213 36.5579 23.5624 36.4216 23.6367 36.3031Z" fill="#FFDFC5"/>
<path d="M25.783 30.7872V33.306C25.0038 34.2572 24.2878 35.2584 23.6394 36.3031C23.5652 36.4216 23.5242 36.5579 23.5206 36.6977C23.517 36.8375 23.551 36.9758 23.6191 37.0979C23.6871 37.2201 23.7867 37.3218 23.9075 37.3923C24.0282 37.4629 24.1657 37.4997 24.3056 37.499C30.6623 37.4661 37.5894 33.6575 37.8812 33.4951C38.003 33.4275 38.1044 33.3285 38.175 33.2085C38.2457 33.0885 38.2829 32.9518 38.283 32.8125V16.0695C37.409 19.2906 35.8357 22.2793 33.6752 24.8231C31.5147 27.367 28.82 29.4033 25.783 30.7872Z" fill="#FFD5C7"/>
<path d="M43.7333 50H19.5496C19.312 44.4278 21.674 39.4421 23.6398 36.3033C25.783 36.7187 36.9744 34.375 38.3807 32.3437C42.1893 36.7187 43.8386 42.4742 43.7518 47.1917L43.7333 50Z" fill="#96E0D7"/>
<path d="M40.9875 36.1188C39.1067 40.0445 36.0151 43.2626 32.168 45.2994C28.3209 47.3362 23.9215 48.084 19.6175 47.4328C19.5365 48.286 19.5137 49.1437 19.5492 50H43.7332L43.7517 47.1917C43.8153 43.7402 42.9481 39.7342 40.9875 36.1188Z" fill="#97D0DD"/>
<path d="M37.5015 29.5476C37.4078 29.5476 37.3148 29.5307 37.227 29.4977C30.4705 26.9599 30.4705 20.1368 30.4705 16.0602C30.4705 15.7808 30.4087 15.3919 30.1143 15.1266C29.8552 14.893 29.4554 14.7911 28.9888 14.8396C28.962 14.8425 28.935 14.8439 28.908 14.8438H21.6193C19.3232 14.8053 17.4466 14.0077 16.0417 12.4731C12.9062 9.04833 13.2867 3.17773 13.3045 2.92968C13.3152 2.75562 13.3833 2.59002 13.4982 2.45878C13.613 2.32754 13.7681 2.23805 13.9392 2.20429C14.107 2.17147 14.2809 2.19573 14.4333 2.27318C14.5857 2.35064 14.7079 2.47686 14.7802 2.63173C14.834 2.72636 15.4171 3.67763 17.0884 3.67763C18.9326 3.67763 21.6276 2.88535 24.481 2.04677C27.6238 1.12304 30.8734 0.167281 33.7046 0.0195276C36.9287 -0.148441 39.1269 0.831441 40.2469 2.93447C42.0019 3.16884 43.4415 4.33359 44.3345 6.25781C45.4966 8.7625 45.634 12.281 44.7203 16.1651C43.6949 20.5253 41.4111 25.0495 38.1164 29.2486C38.0433 29.3418 37.9499 29.4172 37.8434 29.469C37.7369 29.5208 37.62 29.5477 37.5015 29.5476Z" fill="#68676B"/>
<path d="M44.3345 6.25771C43.7865 5.07705 43.032 4.18388 42.1258 3.61455C41.8455 7.22972 40.655 10.7152 38.665 13.7463C36.675 16.7775 33.9503 19.2558 30.7447 20.9505C31.2684 24.3201 32.7923 27.8319 37.227 29.4977C37.3825 29.5561 37.5525 29.5635 37.7125 29.5186C37.8724 29.4738 38.0139 29.3792 38.1164 29.2485C41.4111 25.0493 43.6946 20.5252 44.7203 16.165C45.634 12.2809 45.4969 8.7624 44.3345 6.25771Z" fill="#58575B"/>
<path d="M32.033 23.2976H28.908V17.0476H30.5431C31.2055 13.6541 35.9392 14.0239 35.9392 18.6101C35.9392 21.2471 34.611 23.2976 32.033 23.2976Z" fill="#FFDFC5"/>
<path d="M32.4236 7.81249C33.9337 7.81249 35.158 6.58827 35.158 5.07812C35.158 3.56796 33.9337 2.34374 32.4236 2.34374C30.9134 2.34374 29.6892 3.56796 29.6892 5.07812C29.6892 6.58827 30.9134 7.81249 32.4236 7.81249Z" fill="#8A8A8C"/>
<path d="M37.1111 9.37499C37.7583 9.37499 38.283 8.85033 38.283 8.20312C38.283 7.55591 37.7583 7.03124 37.1111 7.03124C36.4639 7.03124 35.9392 7.55591 35.9392 8.20312C35.9392 8.85033 36.4639 9.37499 37.1111 9.37499Z" fill="#8A8A8C"/>
<path d="M39.0642 50H28.1267V43.0518C28.1267 40.0507 30.5095 37.5464 33.5107 37.5007C34.2357 37.4902 34.9555 37.6239 35.6284 37.894C36.3014 38.164 36.9139 38.565 37.4306 39.0737C37.9472 39.5824 38.3577 40.1887 38.6381 40.8573C38.9186 41.526 39.0634 42.2437 39.0642 42.9687V50Z" fill="#AFEFDE"/>
<path d="M34.3761 15.187C34.3761 15.2028 34.3767 15.2186 34.3767 15.2344C34.377 16.913 33.907 18.5581 33.02 19.9833C32.133 21.4084 30.8645 22.5566 29.3583 23.2976H32.033C34.6111 23.2976 35.9392 21.2468 35.9392 18.6101C35.9392 16.8704 35.2579 15.738 34.3761 15.187Z" fill="#FFD5C7"/>
<path d="M32.8142 43.75C33.6772 43.75 34.3767 43.0504 34.3767 42.1875C34.3767 41.3245 33.6772 40.625 32.8142 40.625C31.9513 40.625 31.2517 41.3245 31.2517 42.1875C31.2517 43.0504 31.9513 43.75 32.8142 43.75Z" fill="#D5F7ED"/>
<path d="M35.158 45.3125C35.5894 45.3125 35.9392 44.9627 35.9392 44.5312C35.9392 44.0998 35.5894 43.75 35.158 43.75C34.7265 43.75 34.3767 44.0998 34.3767 44.5312C34.3767 44.9627 34.7265 45.3125 35.158 45.3125Z" fill="#D5F7ED"/>
<path d="M14.8426 26.5625H13.2813C13.074 26.5625 12.8753 26.4802 12.7288 26.3337C12.5823 26.1872 12.5 25.9885 12.5 25.7812C12.5 25.574 12.5823 25.3753 12.7288 25.2288C12.8753 25.0823 13.074 25 13.2813 25H14.8426C15.0498 25 15.2485 25.0823 15.395 25.2288C15.5415 25.3753 15.6238 25.574 15.6238 25.7812C15.6238 25.9885 15.5415 26.1872 15.395 26.3337C15.2485 26.4802 15.0498 26.5625 14.8426 26.5625Z" fill="#F27C6D"/>
<path d="M17.9676 33.5938C17.7604 33.5938 17.5617 33.5114 17.4152 33.3649C17.2686 33.2184 17.1863 33.0197 17.1863 32.8125V31.25C17.1863 31.0428 17.2686 30.8441 17.4152 30.6976C17.5617 30.5511 17.7604 30.4688 17.9676 30.4688C18.1748 30.4688 18.3735 30.5511 18.52 30.6976C18.6665 30.8441 18.7488 31.0428 18.7488 31.25V32.8125C18.7488 33.0197 18.6665 33.2184 18.52 33.3649C18.3735 33.5114 18.1748 33.5938 17.9676 33.5938Z" fill="#F27C6D"/>
<path d="M14.0613 31.25C13.9068 31.25 13.7557 31.2042 13.6273 31.1184C13.4988 31.0325 13.3986 30.9105 13.3395 30.7677C13.2804 30.625 13.2649 30.4679 13.295 30.3163C13.3252 30.1648 13.3996 30.0256 13.5089 29.9163L15.0714 28.3538C15.2179 28.2073 15.4166 28.125 15.6238 28.1249C15.831 28.1249 16.0298 28.2072 16.1763 28.3538C16.3228 28.5003 16.4052 28.699 16.4052 28.9062C16.4052 29.1134 16.3229 29.3122 16.1763 29.4587L14.6138 31.0212C14.5414 31.0939 14.4552 31.1515 14.3604 31.1907C14.2656 31.23 14.1639 31.2501 14.0613 31.25Z" fill="#F27C6D"/>
<path d="M7.03123 44.6202V50H14.472C14.3626 48.6601 14.2315 46.9503 14.0823 44.7591C16.9785 40.6946 16.3138 36.6918 16.4065 35.9375C16.4065 35.3159 16.1596 34.7198 15.7201 34.2802C15.2805 33.8407 14.6844 33.5937 14.0628 33.5937C13.4412 33.5937 12.845 33.8407 12.4055 34.2802C11.966 34.7198 11.719 35.3159 11.719 35.9375V37.7005C11.719 37.8384 11.67 37.9718 11.5806 38.0769C11.4913 38.1819 11.3674 38.2517 11.2313 38.2738C11.0952 38.2959 10.9556 38.2689 10.8376 38.1975C10.7196 38.1261 10.6309 38.015 10.5873 37.8842L9.40682 34.3437L10.3456 30.5883C11.0038 27.9566 7.58758 26.4999 7.08104 27.8507C4.66414 34.4252 4.61248 34.139 4.7075 34.5508L7.03123 44.6202Z" fill="#FFDFC5"/>
<path d="M16.4062 35.9375C16.4062 35.92 16.4053 35.9028 16.4049 35.8854C14.5553 39.97 11.1959 43.1797 7.03125 44.8411V50H14.472C14.3626 48.66 14.2315 46.9503 14.0823 44.7591C16.9785 40.6946 16.3138 36.6918 16.4062 35.9375Z" fill="#FFD5C7"/>
</g>
<defs>
<clipPath id="clip0">
<rect width="50" height="50" fill="white"/>
</clipPath>
</defs>
</svg>
