<svg width="40" height="40" viewBox="0 0 40 40" fill="none" xmlns="http://www.w3.org/2000/svg">
<path d="M37.9832 20.6798C37.9832 24.2587 37.9832 20.6798 36.3363 23.586C36.0332 24.1212 36.7836 30.8984 36.4336 31.4016C32.982 36.3664 27.3398 39.693 20.907 39.9797C20.6063 39.993 19.154 36.967 18.8501 36.967C15.918 36.967 17.3961 34.6075 14.8875 33.4731C14.2719 33.1958 10.5609 37.6492 9.98039 37.3125C4.01328 33.8516 0 27.3945 0 20C0 19.5523 0.0148438 19.107 0.0445313 18.6664C0.04375 18.6656 0.0445313 18.6648 0.0445313 18.6648C0.075 18.1961 0.121875 17.7328 0.184375 17.2734C0.184375 17.2734 0.184375 17.2734 0.184375 17.2727C0.702344 13.4734 2.2875 10.0148 4.62734 7.20625C5.425 6.24844 6.31016 5.36719 7.27109 4.57266C10.7297 1.71641 15.1641 0 20 0C23.7367 0 27.2336 1.025 30.2258 2.80937C31.9656 3.84531 33.5344 5.13906 34.8813 6.6375C37.9617 10.0664 39.8758 14.5664 39.9945 19.5109C39.9977 19.6734 37.9832 20.5165 37.9832 20.6798Z" fill="#5E54AC"/>
<path d="M28.3188 13.4406L26.8063 14.9531C25.6164 16.143 24.5766 17.4649 23.7024 18.8891C22.8289 20.3149 22.1227 21.8406 21.6024 23.4406C21.1414 24.8555 20.9071 26.336 20.9071 27.8242V39.9797C20.6063 39.993 20.3039 40 20 40C16.3492 40 12.9266 39.0219 9.98049 37.3125V27.4735C9.98049 26.8688 9.67424 26.3133 9.17971 25.9656C9.17737 25.9633 9.17502 25.9617 9.17268 25.9602H9.17112L1.03674 20.2078C0.893773 20.107 0.765648 19.993 0.651586 19.8695C0.333617 19.5266 0.128148 19.107 0.0445544 18.6649C-0.0437268 18.2047 -0.000758048 17.7211 0.184398 17.2727C0.242211 17.1336 0.312523 16.9985 0.397679 16.868C0.413304 16.8422 0.432836 16.8149 0.450804 16.7899C0.850023 16.2242 1.44377 15.8797 2.07737 15.7813C2.6844 15.6867 3.32737 15.8195 3.86877 16.2024L8.04143 19.1531C8.03518 19.0883 8.02971 19.0211 8.02112 18.9555C7.9844 18.568 7.93596 18.1805 7.87737 17.7961C7.65705 16.3391 7.29612 14.9047 6.79612 13.5102L4.76409 7.84611C4.68909 7.63439 4.64377 7.42033 4.62737 7.20626C4.61487 7.04298 4.61799 6.88126 4.63752 6.72111C4.7469 5.83126 5.34221 5.03361 6.24455 4.71017C6.5844 4.58829 6.93362 4.54533 7.27112 4.57267C7.67502 4.60548 8.06174 4.73829 8.39846 4.9547C8.83909 5.23751 9.19065 5.66095 9.38049 6.19064L11.6672 12.561V4.94064C11.6672 4.65939 11.7141 4.38829 11.8024 4.13673C12.1125 3.23907 12.9297 2.5797 13.911 2.49767C13.9578 2.49298 14.0055 2.49142 14.0555 2.48986C14.0602 2.48907 14.0664 2.48986 14.0727 2.48907C14.1235 2.48907 14.1735 2.48986 14.2235 2.49064C14.9797 2.52423 15.65 2.91642 16.0789 3.50001C16.1985 3.66329 16.3 3.84142 16.3781 4.03126C16.5039 4.33048 16.5727 4.65704 16.5727 4.99689V12.7281L18.886 5.51095C19.0008 5.15392 19.1906 4.84064 19.4313 4.58361C20.0125 3.96564 20.8922 3.67267 21.7571 3.86876C21.8196 3.88204 21.8821 3.89845 21.9446 3.9172C21.9547 3.92033 21.9625 3.92267 21.9703 3.92657C22.1899 3.99689 22.3922 4.09376 22.575 4.21486C23.2696 4.67423 23.6852 5.46095 23.6758 6.2922C23.6727 6.5297 23.6344 6.77111 23.5578 7.01017L21.5477 13.2735L24.85 9.97189C25.8094 9.01408 27.3602 9.01408 28.318 9.97267C29.2774 10.9289 29.2774 12.4828 28.3188 13.4406Z" fill="#FFDDCE"/>
<path d="M28.3186 9.97181C27.6659 9.31907 25.3476 11.6963 23.9097 13.3103C23.276 14.0217 22.1589 14.0049 21.5481 13.2736L24.8498 9.97188C25.8083 9.01423 27.3611 9.01423 28.3186 9.97181Z" fill="#FFCBBE"/>
<path d="M21.9456 3.91813C20.9721 3.68219 19.3 9.14946 18.4975 12.0037C18.2643 12.8331 17.2944 13.1982 16.572 12.7288L18.8862 5.51212C19.2973 4.23071 20.6634 3.52157 21.9456 3.91813Z" fill="#FFCBBE"/>
<path d="M11.6669 12.5609V4.94078C11.6669 3.60727 12.7306 2.52203 14.0556 2.48953C13.3287 2.57422 13.2641 8.43758 13.2788 11.4441C13.2829 12.2792 12.4475 12.8577 11.6669 12.5609Z" fill="#FFCBBE"/>
<path d="M15.7849 20.465C14.0982 18.3098 12.0377 17.6976 10.6051 17.5635C10.3953 17.5439 10.193 17.534 9.9994 17.5311C8.80932 14.4023 5.38315 5.16344 6.24448 4.70953C4.96916 5.16688 4.30713 6.57157 4.76448 7.84688L6.79604 13.5108C7.44956 15.3342 7.86752 17.2305 8.04135 19.1533C8.04135 19.1533 8.09065 19.1281 8.18245 19.0881C8.80956 18.8144 9.49213 18.6913 10.1757 18.7232C11.5348 18.7865 13.3634 19.2904 14.8532 21.1939C14.9699 21.343 15.1435 21.4211 15.3195 21.4211C15.4473 21.4211 15.5759 21.3801 15.6839 21.2956C15.941 21.0938 15.986 20.7222 15.7849 20.465Z" fill="#FFCBBE"/>
<path d="M11.775 29.45V38.2352C11.1594 37.9578 10.561 37.6492 9.98049 37.3125V27.4734C9.98049 26.8688 9.67424 26.3133 9.17971 25.9656C9.17737 25.9633 9.17502 25.9617 9.17268 25.9602H9.17112L1.03674 20.2078C0.893773 20.107 0.765648 19.993 0.651586 19.8695C0.334398 19.5266 0.128148 19.1078 0.0445544 18.6664C0.0437732 18.6656 0.0445544 18.6649 0.0445544 18.6649C-0.0437268 18.2055 -0.000758048 17.7211 0.184398 17.2734C0.184398 17.2734 0.184398 17.2734 0.184398 17.2727C0.242211 17.1336 0.312523 16.9984 0.397679 16.868C0.413304 16.8422 0.432836 16.8149 0.450804 16.7899C0.257836 17.1281 0.529711 17.6805 1.0844 18.3352C2.66877 20.2008 6.55549 22.893 8.51643 23.7977C11.1633 25.0188 11.775 26.5984 11.775 29.45Z" fill="#FFCBBE"/>
<path d="M31.8276 7.53148C31.6427 7.37304 31.4378 7.25351 31.2227 7.17148C31.8208 6.31593 31.6837 5.12961 30.8744 4.43593C30.3508 3.98726 29.6667 3.84859 29.0447 4.00164C29.0053 3.58906 28.8134 3.19047 28.4739 2.89945C27.7781 2.30304 26.7305 2.38367 26.1342 3.07953C26.0591 3.16711 25.9949 3.26023 25.9412 3.35734C25.0665 2.90054 23.9871 3.01703 23.23 3.66781C23.11 3.41031 22.935 3.17343 22.7052 2.97648C21.8436 2.23797 20.5463 2.33781 19.8078 3.19945C19.8072 3.20015 19.8067 3.20086 19.8061 3.20156C19.1106 2.63961 18.0905 2.72797 17.5048 3.41132C17.1561 3.81812 17.0405 4.34468 17.1423 4.83148C16.6455 4.88859 16.1681 5.12562 15.8171 5.53523C15.2736 6.16937 15.1849 7.03898 15.5192 7.74851C15.0079 7.96367 14.5882 8.35359 14.3367 8.8446C13.9076 8.38164 13.2947 8.09164 12.6137 8.09164C11.3164 8.09164 10.2647 9.14335 10.2647 10.4408C10.2647 10.7191 10.3133 10.9859 10.4022 11.2336C9.2146 11.3509 8.28687 12.3526 8.28687 13.5711C8.28687 14.3593 8.67546 15.0563 9.27108 15.4824C8.94226 15.8236 8.73897 16.2866 8.73897 16.7979C8.73897 17.8455 9.58827 18.6948 10.6359 18.6948C10.7678 18.6948 10.8964 18.6812 11.0207 18.6557C11.2749 19.7548 12.1791 20.6051 13.3072 20.7781C13.1729 21.0738 13.0975 21.4019 13.0975 21.7479C13.0975 23.0452 14.1492 24.097 15.4466 24.097C15.4476 24.097 15.4487 24.0969 15.4498 24.0969C15.4794 25.1187 16.315 25.9384 17.3439 25.9384C17.9563 25.9384 18.4994 25.6469 18.8462 25.1966C19.2654 25.5853 19.8262 25.8233 20.443 25.8233C21.683 25.8233 22.6978 24.8623 22.7852 23.6446C22.7875 23.6446 22.7898 23.6449 22.792 23.6449C23.8397 23.6449 24.689 22.7956 24.689 21.748L25.3924 14.6438C26.0882 15.2402 27.1358 15.1596 27.7322 14.4637C27.8818 14.2892 27.9887 14.0924 28.0541 13.8862C28.8147 14.1244 29.6776 13.9059 30.2292 13.2625C30.7485 12.6566 30.8527 11.8357 30.5697 11.1448C31.1214 11.1234 31.663 10.8813 32.0506 10.4291C32.7891 9.56718 32.6893 8.26999 31.8276 7.53148Z" fill="#DDEAFB"/>
<path d="M18.2118 24.0968C18.2259 24.5773 18.4181 25.0124 18.7243 25.339C18.379 25.7077 17.8891 25.9382 17.3438 25.9382C16.3149 25.9382 15.4798 25.1187 15.4501 24.0968H15.447C14.1493 24.0968 13.0977 23.0452 13.0977 21.7484C13.0977 21.4023 13.1727 21.0741 13.3071 20.778C12.179 20.6054 11.2751 19.7546 11.0204 18.6562C10.8962 18.6812 10.7681 18.6952 10.636 18.6952C9.58837 18.6952 8.73915 17.846 8.73915 16.7984C8.73915 16.2866 8.94227 15.8234 9.27118 15.4827C8.67509 15.0562 8.2868 14.3593 8.2868 13.571C8.2868 12.353 9.21493 11.3515 10.4024 11.2335C10.3134 10.9859 10.2649 10.7194 10.2649 10.4405C10.2649 9.14366 11.3165 8.0921 12.6134 8.0921C13.1298 8.0921 13.6071 8.25851 13.9946 8.54132C13.4079 8.96788 13.0266 9.66007 13.0266 10.4405C13.0266 10.7194 13.0759 10.9859 13.1641 11.2335C11.9766 11.3515 11.0493 12.353 11.0493 13.571C11.0493 14.3593 11.4376 15.0562 12.0337 15.4827C11.7048 15.8234 11.5016 16.2866 11.5016 16.7984C11.5016 17.846 12.3509 18.6952 13.3985 18.6952C13.5298 18.6952 13.6587 18.6812 13.7829 18.6562C14.0376 19.7546 14.9415 20.6054 16.0696 20.778C15.9352 21.0741 15.8595 21.4023 15.8595 21.7484C15.8595 23.0452 16.9118 24.0968 18.2087 24.0968H18.2118Z" fill="#CBE2FF"/>
<path d="M22.7055 2.97649C22.7204 2.98899 22.7352 3.00227 22.7493 3.01633C22.6868 3.07258 22.6266 3.1343 22.5704 3.19992C22.5696 3.19992 22.5688 3.20071 22.568 3.20149C21.8727 2.63977 20.8524 2.72805 20.2673 3.41164C19.9188 3.81789 19.8032 4.34524 19.9048 4.83196C19.4079 4.88899 18.9305 5.12571 18.5798 5.53508C18.036 6.16946 17.9469 7.03899 18.2813 7.74836C17.7704 7.96399 17.3509 8.35383 17.0993 8.84446C16.6696 8.38196 16.0571 8.09211 15.3759 8.09211C15.2087 8.09211 15.0454 8.1093 14.8876 8.14367C15.0751 7.97961 15.2876 7.84602 15.5196 7.74836C15.1852 7.03899 15.2735 6.16946 15.8173 5.53508C16.168 5.12571 16.6454 4.88899 17.1423 4.83196C17.0407 4.34524 17.1563 3.81789 17.5048 3.41164C18.0907 2.72805 19.1102 2.63977 19.8063 3.20149C19.8063 3.20071 19.8071 3.19992 19.8079 3.19992C20.5462 2.33821 21.8438 2.23821 22.7055 2.97649Z" fill="#CBE2FF"/>
<path d="M26.6963 15.9926L21.1096 10.4059C19.8106 9.10694 17.7047 9.10694 16.4058 10.4059L13.3038 13.5078C12.0049 14.8067 12.0049 16.9126 13.3038 18.2115L18.8905 23.7983C20.1894 25.0972 22.2953 25.0972 23.5942 23.7983L26.6962 20.6963C27.9952 19.3974 27.9952 17.2915 26.6963 15.9926Z" fill="#DD5790"/>
<path d="M24.1131 23.2795L23.5943 23.7983C22.2951 25.0967 20.1897 25.0967 18.8904 23.7983L13.3037 18.2116C12.0053 16.9124 12.0053 14.8069 13.3037 13.5077L16.4061 10.4053C16.9162 9.89516 17.5506 9.585 18.2123 9.47641L15.6279 12.0608C14.3295 13.3592 14.3295 15.4655 15.6279 16.7647L21.2147 22.3514C22.0037 23.1397 23.0904 23.4499 24.1131 23.2795Z" fill="#DA387D"/>
<path d="M40.0001 20C40.0001 24.2375 38.6821 28.1672 36.4337 31.4015L31.8282 26.7969C31.4009 26.3695 30.7907 26.193 30.1954 26.2969C30.1931 26.2969 30.1899 26.2976 30.1868 26.2984H30.186L20.3657 27.9836C20.1938 28.0133 20.0227 28.0234 19.8548 28.0164C18.7517 27.9742 17.7868 27.1883 17.5524 26.0734C17.5454 26.0437 17.5399 26.0109 17.5352 25.9805C17.4181 25.2984 17.5938 24.6351 17.9727 24.1172C18.3345 23.6211 18.8829 23.2609 19.5368 23.1484L24.5735 22.2844C24.5227 22.243 24.472 22.2 24.4188 22.1594C24.1188 21.9109 23.8118 21.6719 23.4977 21.4406C22.3126 20.5664 21.0423 19.807 19.7032 19.175L16.6063 17.7133L14.261 16.607C13.9032 16.4375 13.6056 16.1937 13.3759 15.9008C12.8243 15.1937 12.6806 14.2086 13.0899 13.3422C13.4282 12.6258 14.0681 12.1484 14.7868 11.9922C15.2977 11.8805 15.8462 11.9312 16.3548 12.1711L16.8673 12.4133L22.4759 15.0594L17.0876 9.67108C16.8884 9.47186 16.7306 9.24686 16.6149 9.00702C16.1993 8.15311 16.311 7.10858 16.947 6.35702C16.9767 6.32108 17.0095 6.28514 17.0431 6.24921C17.0462 6.2453 17.0509 6.24139 17.0548 6.23671C17.0907 6.20077 17.1267 6.16561 17.1626 6.13124C17.7212 5.6203 18.4727 5.42343 19.1884 5.5328C19.3884 5.56405 19.5868 5.61796 19.7759 5.69686C20.0759 5.81874 20.3563 6.00155 20.5962 6.24218L26.0626 11.7086L22.5954 4.9703C22.4235 4.63593 22.3368 4.28046 22.3251 3.92811C22.2993 3.08046 22.7134 2.25155 23.4642 1.77811C23.5181 1.74374 23.5743 1.71093 23.6313 1.68046C23.6399 1.67499 23.6477 1.67186 23.6556 1.66874C23.861 1.56327 24.0727 1.48905 24.2876 1.4453C25.1032 1.27811 25.954 1.5414 26.5345 2.13515C26.7009 2.30546 26.8446 2.50311 26.9587 2.72655L29.9665 8.57655L29.9673 3.90702C29.9673 3.51249 30.061 3.13983 30.2259 2.80936C30.6282 2.00546 31.4587 1.45468 32.4196 1.45546C33.7743 1.45311 34.8727 2.55233 34.8727 3.90702V6.04608C34.8727 6.24374 34.8759 6.44061 34.8813 6.63749C34.922 8.1203 35.1173 9.58983 35.461 11.0242C35.8509 12.65 36.4306 14.2281 37.1938 15.7273C37.8688 17.0539 38.7501 18.2664 39.8024 19.3187L39.9946 19.5109C39.9977 19.6734 40.0001 19.8367 40.0001 20Z" fill="#FFDDCE"/>
<path d="M32.4195 1.45419C31.4964 1.45419 31.538 4.77435 31.6626 6.9324C31.7175 7.88357 30.9156 8.66154 29.9667 8.5763V3.90693C29.9673 2.55216 31.0652 1.45419 32.4195 1.45419Z" fill="#FFCBBE"/>
<path d="M23.6325 1.68005C22.7773 2.20154 25.4608 7.24982 26.9117 9.83553C27.3332 10.5869 26.9056 11.5309 26.0628 11.7098L22.5962 4.97045C21.9809 3.77373 22.4454 2.3063 23.6325 1.68005Z" fill="#FFCBBE"/>
<path d="M22.4757 15.0596L17.0874 9.67129C16.1444 8.72832 16.1293 7.20879 17.0432 6.24887C16.589 6.8227 20.6893 11.0145 22.8257 13.13C23.4192 13.7177 23.2376 14.7174 22.4757 15.0596Z" fill="#FFCBBE"/>
<path d="M13.0896 13.342C12.5113 14.5672 13.0363 16.0286 14.2615 16.6069L19.7031 19.1754C21.4545 20.0026 23.091 21.0479 24.5735 22.2847C24.5735 22.2847 24.5906 22.232 24.6272 22.1388C24.645 22.0933 24.6636 22.0482 24.683 22.0033C25.0914 21.0565 24.7093 19.9568 23.7838 19.502C20.1569 17.7201 12.8731 14.0413 13.0896 13.342Z" fill="#FFCBBE"/>
<path d="M37.4133 29.8437C37.1102 30.3789 36.7836 30.8984 36.4336 31.4015L31.8281 26.7968C31.4008 26.3695 30.7906 26.1929 30.1953 26.2968C30.193 26.2968 30.1899 26.2976 30.1867 26.2984H30.1859L20.3656 27.9836C20.1938 28.0132 20.0227 28.0234 19.8547 28.0164C18.7516 27.9742 17.7867 27.1882 17.5523 26.0734C17.5453 26.0437 17.5398 26.0109 17.5352 25.9804C17.6375 26.357 18.2203 26.5554 19.0758 26.625C21.5148 26.8242 26.1672 25.9796 28.1938 25.2328C30.9289 24.225 32.4781 24.9093 34.4945 26.9257L37.4133 29.8437Z" fill="#FFCBBE"/>
<path d="M24.6214 12.3431C24.2203 12.3431 23.8502 12.4755 23.5523 12.6989C23.2251 12.319 22.7409 12.078 22.2002 12.078C21.2148 12.078 20.416 12.8768 20.416 13.8622C20.416 14.5101 20.7615 15.0774 21.2783 15.3899C21.1351 15.6467 21.0532 15.9424 21.0532 16.2573C21.0532 17.2427 21.852 18.0415 22.8373 18.0415C23.8227 18.0415 24.6215 17.2427 24.6215 16.2573C24.6215 16.1387 24.6096 16.0227 24.5875 15.9105C24.5988 15.9108 24.6101 15.9114 24.6215 15.9114C25.6069 15.9114 26.4056 15.1126 26.4056 14.1273C26.4055 13.1419 25.6068 12.3431 24.6214 12.3431Z" fill="#DDEAFB"/>
<path d="M23.5535 17.8911C23.3348 17.988 23.0926 18.0411 22.8379 18.0411C21.852 18.0411 21.0535 17.2427 21.0535 16.2575C21.0535 15.9427 21.1355 15.6466 21.2785 15.3895C20.7621 15.077 20.416 14.5099 20.416 13.8622C20.416 12.877 21.2152 12.0778 22.2004 12.0778C22.4551 12.0778 22.6973 12.1309 22.916 12.2278C22.2871 12.5036 21.848 13.1317 21.848 13.8622C21.848 14.5099 22.1934 15.077 22.7105 15.3895C22.5668 15.6466 22.4848 15.9427 22.4848 16.2575C22.4848 16.988 22.9246 17.6161 23.5535 17.8911Z" fill="#CBE2FF"/>
</svg>
