<svg width="50" height="50" viewBox="0 0 50 50" fill="none" xmlns="http://www.w3.org/2000/svg">
<g clip-path="url(#clip0)">
<path d="M42.9688 13.0693V33.5937C42.9688 33.5937 35.3481 37.4661 28.9913 37.499C28.8515 37.4997 28.714 37.4629 28.5932 37.3923C28.4725 37.3218 28.3729 37.2201 28.3048 37.0979C28.2368 36.9758 28.2027 36.8376 28.2063 36.6977C28.2099 36.5579 28.251 36.4216 28.3252 36.3031C28.9735 35.2583 29.6895 34.2572 30.4688 33.306V30.4687H25.3906C24.4586 30.4677 23.5649 30.097 22.9059 29.4379C22.2468 28.7788 21.876 27.8852 21.875 26.9531V23.874C19.9146 22.5802 19.4541 22.5977 19.3485 22.0142C19.2398 21.4141 19.6269 21.3677 21.875 18.3423V13.0693H42.9688Z" fill="#FFDFC5"/>
<path d="M30.4688 30.7872V33.3061C29.6895 34.2572 28.9735 35.2583 28.3252 36.3031C28.251 36.4217 28.2099 36.5579 28.2063 36.6977C28.2028 36.8376 28.2368 36.9758 28.3048 37.0979C28.3729 37.2201 28.4725 37.3218 28.5932 37.3923C28.714 37.4629 28.8515 37.4997 28.9913 37.499C35.3481 37.4661 42.2751 33.6575 42.567 33.4951C42.6887 33.4275 42.7902 33.3285 42.8608 33.2085C42.9314 33.0885 42.9687 32.9518 42.9688 32.8125V16.0695C42.0948 19.2906 40.5215 22.2793 38.361 24.8231C36.2005 27.367 33.5058 29.4033 30.4688 30.7872Z" fill="#FFD5C7"/>
<path d="M48.4191 50H24.2354C23.9978 44.4278 26.3598 39.4421 28.3256 36.3033C30.4688 36.7187 41.6602 34.375 43.0664 32.3438C46.875 36.7188 48.5243 42.4742 48.4375 47.1917L48.4191 50Z" fill="#96E0D7"/>
<path d="M45.6738 36.1189C43.7929 40.0445 40.7014 43.2626 36.8543 45.2994C33.0071 47.3362 28.6077 48.084 24.3037 47.4328C24.2226 48.286 24.1998 49.1437 24.2354 50H48.419L48.4375 47.1917C48.501 43.7402 47.6339 39.7342 45.6738 36.1189Z" fill="#97D0DD"/>
<path d="M41.9128 29.4978C35.1563 26.9599 35.1563 20.1367 35.1563 16.0602C35.1563 15.7807 35.0944 15.3918 34.8001 15.1265C34.2653 14.6444 34.2527 14.9301 26.305 14.8433C24.009 14.8047 22.1324 14.0071 20.7275 12.4726C17.592 9.04834 17.9725 3.17774 17.9902 2.92969C18.0495 2.10049 19.1387 1.92695 19.4664 2.63174C22.0715 7.21367 40.4812 -5.42431 44.9326 2.93447C46.6877 3.16885 48.1272 4.3336 49.0203 6.25781C50.1824 8.7625 50.3197 12.281 49.4061 16.1651C48.3807 20.5253 46.0968 25.0495 42.8022 29.2486C42.6997 29.3793 42.5582 29.4739 42.3982 29.5187C42.2383 29.5635 42.0683 29.5562 41.9128 29.4978Z" fill="#68676B"/>
<path d="M46.8116 3.61456C46.5313 7.22972 45.3407 10.7152 43.3507 13.7463C41.3608 16.7775 38.6361 19.2558 35.4305 20.9505C35.9541 24.3201 37.478 27.8319 41.9128 29.4978C42.0683 29.5561 42.2383 29.5635 42.3983 29.5186C42.5582 29.4738 42.6997 29.3792 42.8022 29.2485C46.0968 25.0493 48.3804 20.5252 49.4061 16.165C50.4215 11.8486 50.4065 5.87295 46.8116 3.61456Z" fill="#58575B"/>
<path d="M8.59591 43.75C8.52644 43.75 8.45685 43.7492 8.38712 43.7477C6.16358 43.6869 4.04954 42.7692 2.4867 41.1864C0.923859 39.6036 0.0331222 37.478 0.000599724 35.2539C-0.0110426 33.971 0.263341 32.7017 0.803803 31.5382C1.34426 30.3746 2.13722 29.3462 3.12501 28.5275V7.03125C3.12571 6.40986 3.37287 5.81413 3.81225 5.37474C4.25164 4.93535 4.84738 4.6882 5.46876 4.6875H11.7188C12.3401 4.6882 12.9359 4.93535 13.3753 5.37474C13.8147 5.81413 14.0618 6.40986 14.0625 7.03125V28.527C15.4276 29.653 16.4118 31.173 16.8806 32.8794C17.3495 34.5857 17.2801 36.3952 16.682 38.0607C16.084 39.7261 14.9863 41.1664 13.5391 42.1846C12.0918 43.2029 10.3655 43.7496 8.59591 43.75Z" fill="#E2DBD5"/>
<path d="M14.0625 28.527V20.9335C11.1991 24.029 7.31606 25.9889 3.12501 26.4539V28.5275C2.13722 29.3462 1.34426 30.3746 0.803803 31.5382C0.263341 32.7017 -0.0110426 33.971 0.000599724 35.2539C0.0331222 37.478 0.923859 39.6036 2.4867 41.1864C4.04954 42.7692 6.16358 43.6869 8.38712 43.7477C8.45698 43.7492 8.52658 43.75 8.59591 43.75C10.3655 43.7496 12.0918 43.2029 13.5391 42.1847C14.9863 41.1664 16.084 39.7262 16.682 38.0607C17.2801 36.3952 17.3495 34.5857 16.8806 32.8794C16.4118 31.173 15.4276 29.653 14.0625 28.527Z" fill="#D4CCC7"/>
<path d="M36.7188 23.2976H33.5938V17.0476H35.2288C35.8913 13.6541 40.625 14.0239 40.625 18.6101C40.625 21.2471 39.2969 23.2976 36.7188 23.2976Z" fill="#FFDFC5"/>
<path d="M29.6875 19.5313C28.859 19.5303 28.0647 19.2008 27.4789 18.6149C26.893 18.0291 26.5635 17.2348 26.5625 16.4063C26.5625 14.9798 28.5983 11.2818 29.0063 10.555C29.0742 10.434 29.1731 10.3333 29.2928 10.2632C29.4126 10.1931 29.5488 10.1562 29.6875 10.1562C29.8263 10.1562 29.9625 10.1931 30.0822 10.2632C30.202 10.3333 30.3009 10.434 30.3688 10.555C30.7768 11.2818 32.8125 14.9798 32.8125 16.4063C32.8116 17.2348 32.4821 18.0291 31.8962 18.6149C31.3104 19.2008 30.516 19.5303 29.6875 19.5313Z" fill="#AFEFDE"/>
<path d="M8.59376 40.625C7.35214 40.6252 6.14742 40.2028 5.17775 39.4274C4.20808 38.6519 3.5312 37.5695 3.25845 36.3582C2.9857 35.1469 3.13331 33.8789 3.67702 32.7626C4.22072 31.6464 5.12814 30.7484 6.25001 30.2164V17.1875H10.9375V30.2164C12.0594 30.7484 12.9668 31.6464 13.5105 32.7626C14.0542 33.8789 14.2018 35.1469 13.9291 36.3582C13.6563 37.5695 12.9794 38.6519 12.0098 39.4274C11.0401 40.2028 9.83538 40.6252 8.59376 40.625Z" fill="#F27C6D"/>
<path d="M1.5625 44.5312C1.99397 44.5312 2.34375 44.1815 2.34375 43.75C2.34375 43.3185 1.99397 42.9688 1.5625 42.9688C1.13103 42.9688 0.78125 43.3185 0.78125 43.75C0.78125 44.1815 1.13103 44.5312 1.5625 44.5312Z" fill="#E2DBD5"/>
<path d="M4.6875 46.0938C5.11897 46.0938 5.46875 45.744 5.46875 45.3125C5.46875 44.881 5.11897 44.5312 4.6875 44.5312C4.25603 44.5312 3.90625 44.881 3.90625 45.3125C3.90625 45.744 4.25603 46.0938 4.6875 46.0938Z" fill="#E2DBD5"/>
<path d="M12.5 46.0938C12.9315 46.0938 13.2812 45.744 13.2812 45.3125C13.2812 44.881 12.9315 44.5312 12.5 44.5312C12.0685 44.5312 11.7188 44.881 11.7188 45.3125C11.7188 45.744 12.0685 46.0938 12.5 46.0938Z" fill="#E2DBD5"/>
<path d="M8.59375 46.875C9.02522 46.875 9.375 46.5252 9.375 46.0938C9.375 45.6623 9.02522 45.3125 8.59375 45.3125C8.16228 45.3125 7.8125 45.6623 7.8125 46.0938C7.8125 46.5252 8.16228 46.875 8.59375 46.875Z" fill="#E2DBD5"/>
<path d="M15.625 44.5312C16.0565 44.5312 16.4062 44.1815 16.4062 43.75C16.4062 43.3185 16.0565 42.9688 15.625 42.9688C15.1935 42.9688 14.8438 43.3185 14.8438 43.75C14.8438 44.1815 15.1935 44.5312 15.625 44.5312Z" fill="#E2DBD5"/>
<path d="M7.03125 7.8125H3.125V9.375H7.03125C7.23845 9.375 7.43716 9.29269 7.58368 9.14618C7.73019 8.99966 7.8125 8.80095 7.8125 8.59375C7.8125 8.38655 7.73019 8.18784 7.58368 8.04132C7.43716 7.89481 7.23845 7.8125 7.03125 7.8125Z" fill="#C6BAB3"/>
<path d="M8.59375 10.9375H3.125V12.5H8.59375C8.80095 12.5 8.99966 12.4177 9.14618 12.2712C9.29269 12.1247 9.375 11.926 9.375 11.7188C9.375 11.5115 9.29269 11.3128 9.14618 11.1663C8.99966 11.0198 8.80095 10.9375 8.59375 10.9375Z" fill="#C6BAB3"/>
<path d="M7.03125 14.0625H3.125V15.625H7.03125C7.23845 15.625 7.43716 15.5427 7.58368 15.3962C7.73019 15.2497 7.8125 15.051 7.8125 14.8438C7.8125 14.6365 7.73019 14.4378 7.58368 14.2913C7.43716 14.1448 7.23845 14.0625 7.03125 14.0625Z" fill="#C6BAB3"/>
<path d="M3.65295 37.4982C3.98186 38.1941 4.45399 38.8127 5.03845 39.3134C5.6229 39.8142 6.30651 40.186 7.04454 40.4044C7.78258 40.6227 8.55841 40.6828 9.32126 40.5807C10.0841 40.4785 10.8168 40.2165 11.4714 39.8116C12.126 39.4068 12.6877 38.8683 13.1198 38.2314C13.5519 37.5944 13.8447 36.8735 13.979 36.1156C14.1132 35.3577 14.086 34.5801 13.8989 33.8335C13.7119 33.0869 13.3694 32.3882 12.8937 31.7831C12.0171 33.4847 10.6939 34.9155 9.06599 35.9223C7.4381 36.9292 5.56688 37.4739 3.65295 37.4982Z" fill="#ED6464"/>
<path d="M7.03125 35.9375C7.8942 35.9375 8.59375 35.2379 8.59375 34.375C8.59375 33.5121 7.8942 32.8125 7.03125 32.8125C6.16831 32.8125 5.46875 33.5121 5.46875 34.375C5.46875 35.2379 6.16831 35.9375 7.03125 35.9375Z" fill="#FFA596"/>
<path d="M10.1562 32.8125C10.5877 32.8125 10.9375 32.4627 10.9375 32.0313C10.9375 31.5998 10.5877 31.25 10.1562 31.25C9.72478 31.25 9.375 31.5998 9.375 32.0313C9.375 32.4627 9.72478 32.8125 10.1562 32.8125Z" fill="#FFA596"/>
<path d="M26.6569 17.168C26.8427 17.9072 27.2924 18.5531 27.9213 18.9839C28.5501 19.4148 29.3148 19.6009 30.0713 19.5073C30.8278 19.4137 31.524 19.0468 32.0289 18.4756C32.5337 17.9045 32.8124 17.1685 32.8125 16.4062C32.8125 15.7988 32.443 14.7794 31.9876 13.7529C31.4537 14.721 30.6864 15.5404 29.7555 16.1367C28.8246 16.7331 27.7595 17.0876 26.6569 17.168Z" fill="#96E0D7"/>
<path d="M37.1094 7.8125C38.6195 7.8125 39.8438 6.58828 39.8438 5.07812C39.8438 3.56797 38.6195 2.34375 37.1094 2.34375C35.5992 2.34375 34.375 3.56797 34.375 5.07812C34.375 6.58828 35.5992 7.8125 37.1094 7.8125Z" fill="#8A8A8C"/>
<path d="M41.7969 9.375C42.4441 9.375 42.9688 8.85033 42.9688 8.20312C42.9688 7.55592 42.4441 7.03125 41.7969 7.03125C41.1497 7.03125 40.625 7.55592 40.625 8.20312C40.625 8.85033 41.1497 9.375 41.7969 9.375Z" fill="#8A8A8C"/>
<path d="M43.75 50H32.8125V43.0518C32.8125 40.0507 35.1953 37.5464 38.1964 37.5007C38.9214 37.4903 39.6412 37.6239 40.3142 37.894C40.9871 38.164 41.5996 38.565 42.1163 39.0737C42.633 39.5824 43.0435 40.1887 43.3239 40.8574C43.6043 41.526 43.7492 42.2437 43.75 42.9688V50Z" fill="#AFEFDE"/>
<path d="M39.0619 15.187C39.0619 15.2028 39.0625 15.2186 39.0625 15.2344C39.0628 16.913 38.5928 18.5581 37.7058 19.9833C36.8188 21.4084 35.5503 22.5566 34.0441 23.2976H36.7188C39.2969 23.2976 40.625 21.2468 40.625 18.6101C40.625 16.8704 39.9437 15.738 39.0619 15.187Z" fill="#FFD5C7"/>
<path d="M37.5 43.75C38.3629 43.75 39.0625 43.0504 39.0625 42.1875C39.0625 41.3246 38.3629 40.625 37.5 40.625C36.6371 40.625 35.9375 41.3246 35.9375 42.1875C35.9375 43.0504 36.6371 43.75 37.5 43.75Z" fill="#D5F7ED"/>
<path d="M39.8438 45.3125C40.2752 45.3125 40.625 44.9627 40.625 44.5312C40.625 44.0998 40.2752 43.75 39.8438 43.75C39.4123 43.75 39.0625 44.0998 39.0625 44.5312C39.0625 44.9627 39.4123 45.3125 39.8438 45.3125Z" fill="#D5F7ED"/>
</g>
<defs>
<clipPath id="clip0">
<rect width="50" height="50" fill="white"/>
</clipPath>
</defs>
</svg>
