<svg width="40" height="40" viewBox="0 0 40 40" fill="none" xmlns="http://www.w3.org/2000/svg">
<path d="M40 20.0021C40 26.9057 36.5022 32.9923 31.1822 36.5864C27.9902 38.7429 24.1421 38.6849 20 38.6849C15.8818 38.6849 12.0542 38.7574 8.87313 36.6237C3.52203 33.0344 0 26.9296 0 20.0021C0 8.95643 8.9543 0.00213623 20 0.00213623C31.0457 0.00213623 40 8.95643 40 20.0021Z" fill="#90D8F9"/>
<path d="M31.1258 36.6236C30.1617 37.2705 29.1383 37.8361 28.0648 38.3088C23.0249 40.5611 16.9762 40.562 11.9351 38.3088C10.8617 37.8353 9.83826 37.2705 8.87341 36.6228C9.68513 35.5002 10.7297 34.558 11.9351 33.8634C12.732 33.4048 13.5992 33.0556 14.5156 32.8361C14.657 32.8017 14.8 32.7705 14.9437 32.7431C15.2148 32.69 15.4906 32.6494 15.7695 32.6205C15.85 32.6119 15.9297 32.6041 16.0109 32.5978C16.275 32.5759 16.5422 32.565 16.8125 32.565H23.1867C23.5398 32.565 23.8875 32.5838 24.2297 32.6197C24.5086 32.6486 24.7836 32.69 25.0554 32.7416C25.164 32.7627 25.2719 32.7853 25.3789 32.8095C25.414 32.8189 25.45 32.8259 25.4844 32.8353C26.4015 33.0556 27.2679 33.4048 28.0648 33.8634C29.2703 34.5588 30.314 35.5009 31.1258 36.6236Z" fill="#DDEAFB"/>
<path d="M16.8125 32.565C14.5187 32.565 12.964 35.8798 12.8492 38.6845C12.5408 38.5684 12.2358 38.4408 11.9351 38.3088C10.8617 37.8353 9.83826 37.2705 8.87341 36.6228C9.68513 35.5002 10.7297 34.558 11.9351 33.8634C12.732 33.4048 13.5992 33.0556 14.5156 32.8361C14.657 32.8017 14.8 32.7705 14.9437 32.7431C15.2148 32.69 15.4906 32.6494 15.7695 32.6205C15.85 32.6119 15.9297 32.6041 16.0109 32.5978C16.275 32.5759 16.5422 32.565 16.8125 32.565Z" fill="#CBE2FF"/>
<path d="M23.4927 28.7937V32.8088C23.4927 33.5291 21.8038 36.1784 21.0326 36.4168C20.7063 36.518 20.3586 36.5728 19.999 36.5728C18.07 36.5728 16.5066 35.0094 16.5066 33.0804V28.7937H23.4927V28.7937Z" fill="#CBE2FF"/>
<path d="M23.4926 32.8089V33.0804C23.4926 34.6498 22.4579 35.9762 21.0326 36.4169C19.7465 36.0216 18.7797 34.9034 18.6011 33.5353C18.8344 33.5496 19.069 33.5567 19.3048 33.5567C19.9657 33.5567 20.6134 33.5043 21.2445 33.4007C22.0221 33.2756 22.7734 33.0756 23.4926 32.8089Z" fill="#DDEAFB"/>
<path d="M10.3547 21.7324C10.3547 23.3337 9.18491 24.6615 7.65319 24.9079C7.48577 24.935 7.31358 24.9491 7.13788 24.9491C5.36085 24.9491 3.92108 23.5094 3.92108 21.7323C3.92108 19.9553 5.36093 18.5156 7.13788 18.5156C7.31358 18.5156 7.48577 18.5298 7.65319 18.5569C9.18491 18.8034 10.3547 20.1311 10.3547 21.7324Z" fill="#B46E59"/>
<path d="M10.3547 21.7324C10.3547 23.3338 9.18491 24.6615 7.65319 24.9079C7.37491 23.8962 7.22632 22.8314 7.22632 21.7324C7.22632 20.6335 7.37491 19.5687 7.65319 18.557C9.18491 18.8034 10.3547 20.1311 10.3547 21.7324Z" fill="#A55E4D"/>
<path d="M7.13788 22.8821C7.77283 22.8821 8.28756 22.3674 8.28756 21.7324C8.28756 21.0975 7.77283 20.5827 7.13788 20.5827C6.50292 20.5827 5.98819 21.0975 5.98819 21.7324C5.98819 22.3674 6.50292 22.8821 7.13788 22.8821Z" fill="#A55E4D"/>
<path d="M29.6445 21.7324C29.6445 23.3337 30.8142 24.6615 32.346 24.9079C32.5134 24.935 32.6856 24.9491 32.8613 24.9491C34.6383 24.9491 36.0781 23.5094 36.0781 21.7323C36.0781 19.9553 34.6383 18.5156 32.8613 18.5156C32.6856 18.5156 32.5134 18.5298 32.346 18.5569C30.8142 18.8034 29.6445 20.1311 29.6445 21.7324Z" fill="#B46E59"/>
<path d="M29.6445 21.7324C29.6445 23.3338 30.8142 24.6615 32.346 24.9079C32.6242 23.8962 32.7728 22.8314 32.7728 21.7324C32.7728 20.6335 32.6242 19.5687 32.346 18.557C30.8142 18.8034 29.6445 20.1311 29.6445 21.7324Z" fill="#A55E4D"/>
<path d="M32.8613 22.8821C33.4962 22.8821 34.011 22.3674 34.011 21.7324C34.011 21.0975 33.4962 20.5828 32.8613 20.5828C32.2263 20.5828 31.7116 21.0975 31.7116 21.7324C31.7116 22.3674 32.2263 22.8821 32.8613 22.8821Z" fill="#A55E4D"/>
<path d="M31.1258 7.73688L32.0859 20.0416C32.0859 20.2533 32.0805 20.4642 32.0695 20.6736C31.7742 26.4033 27.489 31.0783 21.939 31.972C21.3086 32.0752 20.6601 32.1275 19.9992 32.1275C13.3242 32.1275 7.91327 26.7174 7.91327 20.0416L8.87343 7.73688H31.1258Z" fill="#B46E59"/>
<path d="M32.0859 10.0111V19.6509C32.0859 19.8626 32.0804 20.0736 32.0695 20.283C29.1742 19.0236 29.6828 12.7619 29.6828 12.7619L32.0859 10.0111Z" fill="#407093"/>
<path d="M22.1284 31.94C22.0659 31.9509 22.0026 31.9619 21.9393 31.972C21.308 32.0752 20.6604 32.1275 19.9994 32.1275C13.3244 32.1275 7.91351 26.7174 7.91351 20.0416V7.73688H12.1752V20.0416C12.1752 25.99 16.4705 30.933 22.1284 31.94Z" fill="#A55E4D"/>
<path d="M7.91327 10.0111V19.6509C7.91327 19.8626 7.91874 20.0736 7.92968 20.283C10.825 19.0236 10.3164 12.7619 10.3164 12.7619L7.91327 10.0111Z" fill="#407093"/>
<path d="M29.0988 17.4552C28.8913 17.4552 28.7184 17.2918 28.7089 17.0823C28.6991 16.8668 28.8659 16.6841 29.0813 16.6744L32.4755 16.5198C32.691 16.508 32.8737 16.6768 32.8835 16.8923C32.8933 17.1078 32.7265 17.2905 32.511 17.3002L29.1169 17.4548C29.1109 17.455 29.1048 17.4552 29.0988 17.4552Z" fill="#DD5790"/>
<path d="M10.9012 17.4561C10.8952 17.4561 10.8891 17.456 10.8831 17.4557L7.48899 17.3012C7.27352 17.2914 7.10672 17.1087 7.11656 16.8932C7.12633 16.6777 7.30844 16.5098 7.52453 16.5208L10.9187 16.6753C11.1341 16.6851 11.3009 16.8677 11.2911 17.0833C11.2816 17.2927 11.1087 17.4561 10.9012 17.4561Z" fill="#DA387D"/>
<path d="M21.3706 22.3996H18.6286C18.3019 22.3996 18.0372 22.1348 18.0372 21.8082C18.0372 21.4816 18.3019 21.2168 18.6286 21.2168H21.3706C21.6973 21.2168 21.962 21.4816 21.962 21.8082C21.962 22.1348 21.6973 22.3996 21.3706 22.3996Z" fill="#A55E4D"/>
<path d="M28.4405 24.0852C28.2996 24.0852 28.1635 24.0088 28.0938 23.8752C27.9942 23.6841 28.0682 23.4484 28.259 23.3484C28.2906 23.3319 31.4256 21.6477 32.1226 18.0229C32.1633 17.811 32.3679 17.6725 32.58 17.713C32.7918 17.7537 32.9305 17.9586 32.8898 18.1704C32.1197 22.1753 28.7633 23.9666 28.6207 24.0409C28.5631 24.071 28.5014 24.0852 28.4405 24.0852Z" fill="#DDEAFB"/>
<path d="M11.5584 24.0852C11.4976 24.0852 11.436 24.071 11.3783 24.0409C11.2358 23.9666 7.87927 22.1754 7.10911 18.1704C7.06841 17.9585 7.20708 17.7537 7.41895 17.713C7.63114 17.6725 7.8356 17.811 7.8763 18.0229C8.57333 21.6478 11.7083 23.3319 11.7399 23.3484C11.9306 23.4487 12.0046 23.6845 11.9046 23.8756C11.835 24.0089 11.6991 24.0852 11.5584 24.0852Z" fill="#CBE2FF"/>
<path d="M29.3586 27.9564C29.0891 29.5439 27.757 30.7392 26.1531 30.8799C22.0508 31.2408 17.9484 31.2408 13.8461 30.8799C12.2422 30.7392 10.9101 29.5439 10.6406 27.9564C10.4023 26.5541 10.0914 24.6463 10.5578 23.0822C10.7101 22.5736 11.1492 22.2033 11.6765 22.147C13.6789 21.9338 15.8414 21.8033 18.0406 21.7541C19.3422 21.7259 20.657 21.7259 21.9586 21.7541C24.1578 21.8033 26.3203 21.9338 28.3227 22.147C28.85 22.2033 29.2891 22.5736 29.4406 23.0822C29.9078 24.6463 29.5969 26.5541 29.3586 27.9564Z" fill="#DDEAFB"/>
<path d="M17.1411 31.0925C16.0427 31.048 14.9442 30.9777 13.8458 30.8808C12.2419 30.7394 10.9098 29.5441 10.6403 27.9566C10.402 26.5542 10.0911 24.6464 10.5575 23.0824C10.7098 22.5738 11.1489 22.2035 11.6762 22.1472C12.8708 22.0199 14.1223 21.9222 15.4044 21.8535C15.2106 22.0355 15.0645 22.2691 14.9848 22.5347C14.4427 24.3535 14.8036 26.5722 15.0809 28.2042C15.2934 29.4581 16.0762 30.5011 17.1411 31.0925Z" fill="#CBE2FF"/>
<path d="M26.3155 25.3895C26.3068 25.3895 26.298 25.3893 26.2891 25.3887C22.1156 25.1098 17.8834 25.1098 13.71 25.3887C13.4959 25.4031 13.3086 25.2402 13.2942 25.025C13.2798 24.8098 13.4427 24.6236 13.658 24.6092C17.8659 24.328 22.1333 24.328 26.3412 24.6092C26.5565 24.6236 26.7193 24.8098 26.7049 25.025C26.6911 25.2313 26.5194 25.3895 26.3155 25.3895Z" fill="#CBE2FF"/>
<path d="M26.8625 27.1901H13.1367C12.9209 27.1901 12.7461 27.0152 12.7461 26.7995C12.7461 26.5838 12.9209 26.4088 13.1367 26.4088H26.8625C27.0783 26.4088 27.2531 26.5838 27.2531 26.7995C27.2531 27.0152 27.0783 27.1901 26.8625 27.1901Z" fill="#CBE2FF"/>
<path d="M19.9995 29.2007C17.8808 29.2007 15.762 29.1304 13.658 28.9898C13.4427 28.9754 13.2798 28.7892 13.2942 28.574C13.3087 28.3588 13.496 28.1951 13.71 28.2103C17.8834 28.4892 22.1156 28.4892 26.2891 28.2103C26.5034 28.1951 26.6905 28.3588 26.7049 28.574C26.7193 28.7892 26.5565 28.9754 26.3412 28.9898C24.2372 29.1303 22.1184 29.2007 19.9995 29.2007Z" fill="#CBE2FF"/>
<path d="M21.9617 21.808C21.9617 21.9713 21.8953 22.1189 21.7883 22.2259C21.6812 22.333 21.5336 22.3994 21.3703 22.3994H18.6289C18.3023 22.3994 18.0375 22.1345 18.0375 21.808C18.0375 21.79 18.0383 21.7713 18.0406 21.7541C19.3422 21.7259 20.657 21.7259 21.9586 21.7541C21.9609 21.7713 21.9617 21.79 21.9617 21.808Z" fill="#CBE2FF"/>
<path d="M32.0867 15.1469L29.9125 14.4758C24.1461 12.6946 18.0188 12.504 12.175 13.904C11.475 14.0719 10.7789 14.2626 10.0875 14.4758L7.91328 15.1469C5.25234 12.486 2.94063 9.25866 5.98828 4.65007C7.65781 2.12507 11.7023 0.971943 15.0195 0.4446C17.7578 0.00952151 20 0.00170898 20 0.00170898C20 0.00170898 30.9641 0.0407715 34.0117 4.65015C37.0594 9.25874 34.7477 12.486 32.0867 15.1469Z" fill="#DDEAFB"/>
<path d="M12.175 13.904C11.475 14.072 10.7789 14.2626 10.0875 14.4759L7.91328 15.147C5.25234 12.4861 2.94063 9.25873 5.98828 4.65014C7.65781 2.12514 11.7023 0.972015 15.0195 0.444672C11.1203 1.35162 8.78047 8.64858 12.175 13.904Z" fill="#CBE2FF"/>
<path d="M32.0869 15.733C32.0296 15.733 31.9714 15.7246 31.9139 15.7069L29.7397 15.0358C24.0892 13.2903 18.0627 13.0959 12.3115 14.4738C11.6258 14.6383 10.9355 14.8274 10.2602 15.0358L8.08609 15.7068C7.77695 15.8021 7.44883 15.6289 7.35344 15.3197C7.25797 15.0104 7.43133 14.6824 7.74055 14.587L9.91476 13.9159C10.6138 13.7003 11.3283 13.5045 12.0384 13.3342C17.994 11.9075 24.2344 12.1086 30.0855 13.916L32.2596 14.587C32.5688 14.6825 32.7421 15.0104 32.6467 15.3197C32.5689 15.5715 32.3372 15.733 32.0869 15.733Z" fill="#CBE2FF"/>
<path d="M30.1066 17.0273C30.0616 16.6184 29.7347 16.2977 29.3254 16.2566C27.2105 16.0441 20.9377 15.4219 20.0007 15.4219C18.909 15.4219 17.1508 15.6405 10.6602 16.2358C10.2491 16.2736 9.91789 16.5941 9.8725 17.0043C9.72039 18.3772 9.67843 19.7501 9.74664 21.123C9.81171 22.4329 10.8664 23.4839 12.1766 23.5415C13.6713 23.6073 15.166 23.6073 16.6608 23.5415C17.9709 23.4839 19.0259 22.433 19.0907 21.1231C19.1041 20.8537 19.1131 20.5842 19.118 20.3147C19.1266 19.8417 19.5152 19.464 19.9884 19.464C20.4615 19.464 20.8501 19.8417 20.8587 20.3147C20.8635 20.5842 20.8727 20.8537 20.886 21.1231C20.9509 22.433 22.0058 23.4839 23.3159 23.5415C24.8107 23.6073 26.3054 23.6073 27.8002 23.5415C29.1101 23.4839 30.165 22.4333 30.2301 21.1237C30.2978 19.7583 30.2566 18.3928 30.1066 17.0273Z" fill="#DD5790"/>
<path d="M12.7629 23.5636C12.5676 23.5574 12.3715 23.5496 12.1762 23.541C10.866 23.484 9.81131 22.4324 9.74569 21.123C9.67772 19.7496 9.71991 18.3769 9.87225 17.0043C9.91756 16.5941 10.2488 16.273 10.6597 16.2355C11.0715 16.198 11.4644 16.1613 11.8387 16.1269C11.634 16.2793 11.4926 16.5113 11.4629 16.7793C11.2972 18.2754 11.2512 19.7715 11.3254 21.2675C11.3746 22.2574 11.9426 23.1121 12.7629 23.5636Z" fill="#DA387D"/>
<path d="M14.4186 22.407C13.8652 22.407 13.3089 22.3976 12.7518 22.3789C11.7423 22.345 10.9363 21.5284 10.9089 20.5187C10.8932 19.9392 10.8978 19.3593 10.9229 18.7801C10.9568 17.9953 11.5837 17.3634 12.3685 17.3311C13.0536 17.3029 13.7384 17.2887 14.4186 17.2887C15.0989 17.2887 15.7837 17.3029 16.4687 17.3311C17.2535 17.3634 17.8805 17.9954 17.9144 18.7801C17.9452 19.4916 17.9452 20.204 17.9144 20.9155C17.8805 21.7002 17.2536 22.3322 16.4687 22.3645C15.7837 22.3928 15.0988 22.407 14.4186 22.407Z" fill="#B1E4F9"/>
<path d="M25.5576 22.407C24.8774 22.407 24.1926 22.3928 23.5076 22.3645C22.7228 22.3322 22.0958 21.7002 22.0619 20.9155C22.0312 20.204 22.0312 19.4916 22.0619 18.7801C22.0958 17.9953 22.7228 17.3634 23.5076 17.3311C24.1926 17.3029 24.8774 17.2887 25.5576 17.2887C26.238 17.2887 26.9227 17.3029 27.6078 17.3311C28.3926 17.3634 29.0195 17.9954 29.0534 18.7801C29.0784 19.3594 29.0831 19.9393 29.0674 20.5187C29.04 21.5284 28.2341 22.3449 27.2245 22.3789C26.6674 22.3976 26.111 22.407 25.5576 22.407Z" fill="#B1E4F9"/>
<path d="M13.1104 22.3902C12.9908 22.3871 12.8713 22.3832 12.7518 22.3793C11.7424 22.3457 10.9369 21.5293 10.9088 20.5191C10.8932 19.9395 10.8979 19.3598 10.9229 18.7809C10.9572 17.9957 11.5838 17.3637 12.3689 17.3317C12.5158 17.3254 12.6627 17.3199 12.8104 17.3152C12.3299 17.5887 12.0002 18.0973 11.9744 18.684C11.9471 19.316 11.9424 19.9481 11.9596 20.5801C11.9807 21.3723 12.4424 22.0559 13.1104 22.3902Z" fill="#90D8F9"/>
<path d="M24.026 22.3835C23.8533 22.378 23.6807 22.3718 23.508 22.3648C22.7228 22.3319 22.0963 21.6999 22.0619 20.9155C22.0314 20.2038 22.0314 19.4913 22.0619 18.7804C22.0963 17.9952 22.7228 17.3632 23.508 17.3312C23.6807 17.3241 23.8533 17.3179 24.026 17.3124C23.5041 17.5655 23.14 18.0913 23.1135 18.7046C23.0807 19.4663 23.0807 20.2296 23.1135 20.9913C23.14 21.6045 23.5041 22.1303 24.026 22.3835Z" fill="#90D8F9"/>
</svg>
