<svg width="40" height="40" viewBox="0 0 40 40" fill="none" xmlns="http://www.w3.org/2000/svg">
<path d="M20 38.7979C30.3818 38.7979 38.7979 30.3818 38.7979 20C38.7979 9.61822 30.3818 1.20212 20 1.20212C9.61822 1.20212 1.20212 9.61822 1.20212 20C1.20212 30.3818 9.61822 38.7979 20 38.7979Z" fill="#90D8F9"/>
<path d="M30.2252 30.0434C29.8703 30.3984 29.4059 30.5755 28.9416 30.5755C28.4764 30.5755 28.0112 30.3984 27.657 30.0434C28.3661 30.7525 28.3661 31.9018 27.657 32.6116C27.3029 32.9658 26.8377 33.1437 26.3725 33.1437C25.9081 33.1437 25.4438 32.9658 25.0888 32.6116L23.9081 31.4309C24.6172 32.14 24.6172 33.2901 23.9081 33.9991C23.554 34.3533 23.0888 34.5311 22.6245 34.5311C22.1601 34.5311 21.6957 34.3532 21.3408 33.9999V33.9991H21.34C17.2305 37.0784 8.34922 26.6631 5.9525 23.6998L5.04868 19.5815L10.4981 13.2072C14.4016 12.2897 18.0877 12.8837 18.0877 12.8837L24.7975 17.1042L30.2252 27.4752C30.9343 28.1843 30.9343 29.3344 30.2252 30.0434Z" fill="#FFDDCE"/>
<path d="M21.3399 33.9991C17.2305 37.0784 8.34914 26.6631 5.95242 23.6998L6.92383 21.4567C10.4136 26.5175 15.4638 31.901 18.4402 31.0986L21.3399 33.9991Z" fill="#FFCBBE"/>
<path d="M33.9379 22.9867C33.6764 23.7851 33.5363 24.5562 33.8647 25.2282V25.229C32.3879 27.3795 30.7436 28.272 30.6977 28.2971C30.6188 27.996 30.4611 27.7111 30.2253 27.4753L20.8208 18.0708C19.6579 18.4588 18.42 19.4978 17.5194 20.3814C17.0775 20.8144 16.4989 21.0357 15.9162 21.0357C15.4397 21.0357 14.9609 20.8876 14.5536 20.5867C14.5231 20.5642 14.4925 20.5408 14.4635 20.5167C14.4627 20.5159 14.4618 20.515 14.4611 20.5142C13.6386 19.8398 13.3818 18.6784 13.8647 17.7199C15.8164 13.843 19.0502 12.2116 20.0497 11.7842C20.2437 11.7013 20.4529 11.6611 20.6638 11.6692C21.6328 11.7038 22.5914 11.8985 23.5025 12.1859C26.5825 13.1549 29.1258 15.1814 29.7182 15.6772C30.2469 17.0639 34.0755 17.7513 34.6566 19.1154C35.1436 20.2575 34.3726 21.6588 33.9379 22.9867Z" fill="#B46E59"/>
<path d="M33.8647 25.2281V25.2289C32.3878 27.3795 30.7436 28.272 30.6976 28.297C30.6187 27.9959 30.461 27.711 30.2252 27.4752L24.5206 21.7706C26.5279 23.7779 30.8707 24.6359 32.8787 23.1581C33.1476 22.9609 33.5105 22.9159 33.9379 22.9867C33.6764 23.7851 33.5363 24.5561 33.8647 25.2281Z" fill="#A55E4D"/>
<path d="M14.4611 20.5143C13.6386 19.8398 13.3818 18.6784 13.8647 17.7199C15.8164 13.8431 19.0502 12.2116 20.0497 11.7843C20.2437 11.7014 20.4529 11.6612 20.6638 11.6692C21.6328 11.7038 22.5914 11.8986 23.5025 12.1859C19.2257 12.1883 13.2055 19.2805 14.4611 20.5143Z" fill="#A55E4D"/>
<path d="M30.5385 29.6238C30.4573 29.7743 30.3526 29.916 30.2255 30.0431C29.8705 30.3981 29.4062 30.5752 28.9418 30.5752C28.4766 30.5752 28.0114 30.3981 27.6573 30.0431L21.6582 24.044C21.9209 23.572 22.5621 23.4824 22.9441 23.8644L28.3896 29.3107C28.7437 29.6656 29.2089 29.8427 29.6741 29.8427C29.9719 29.8427 30.2697 29.7703 30.5385 29.6238Z" fill="#FFCBBE"/>
<path d="M24.2512 33.5249C24.1651 33.6963 24.0516 33.8564 23.9091 33.9989C23.555 34.3531 23.0898 34.5309 22.6246 34.5309C22.1602 34.5309 21.6959 34.353 21.3409 33.9989L16.4644 29.1216C17.047 28.7506 17.8092 28.8341 18.2976 29.3226L22.1578 33.1828C22.5119 33.537 22.9771 33.7149 23.4415 33.7149C23.7192 33.7148 23.9969 33.6512 24.2512 33.5249Z" fill="#FFCBBE"/>
<path d="M27.9566 32.2146C27.8777 32.357 27.7772 32.4906 27.6564 32.6114C27.3015 32.9656 26.8371 33.1434 26.3727 33.1434C25.9076 33.1434 25.4423 32.9656 25.0882 32.6114L19.6024 27.1245C20.0269 26.7631 20.6579 26.7885 21.0521 27.1827L24.6037 30.7345L25.7835 31.9152C26.1384 32.2702 26.6028 32.4473 27.068 32.4473C27.3747 32.4472 27.6814 32.3699 27.9566 32.2146Z" fill="#FFCBBE"/>
<path d="M35.018 12.1303C32.934 12.5324 31.0326 13.3562 29.314 14.6015C30.7655 18.5252 32.4261 22.3581 34.2958 26.1005C35.6851 25.8325 36.9933 25.377 38.2203 24.7341C39.277 24.1805 39.7379 22.9106 39.305 21.799C38.025 18.5116 36.596 15.2887 35.018 12.1303Z" fill="#95D6A4"/>
<path d="M38.2212 24.7344C36.9942 25.3775 35.6859 25.8329 34.2961 26.1008C33.8093 25.1257 33.3372 24.1448 32.879 23.1583C35.0501 22.7363 37.0342 21.8843 38.8315 20.6014C38.9915 20.9994 39.1494 21.3983 39.3051 21.7981C39.738 22.9102 39.2781 24.1804 38.2212 24.7344Z" fill="#78C2A4"/>
<path d="M4.98188 10.233C7.06586 10.6351 8.96719 11.4588 10.6859 12.7041C9.23438 16.6278 7.57375 20.4608 5.70399 24.2032C4.04266 23.8827 2.49743 23.2941 1.06829 22.4377C0.434145 22.0577 0.168677 21.2723 0.432583 20.5817C1.77875 17.0584 3.29524 13.6088 4.98188 10.233Z" fill="#FFD064"/>
<path d="M1.06749 22.4378C2.49655 23.2948 4.04186 23.8831 5.70374 24.2035C6.19053 23.2284 6.66257 22.2476 7.12085 21.261C4.94975 20.839 2.96561 19.987 1.16835 18.7041C0.917566 19.3278 0.672098 19.9536 0.432176 20.5816C0.168348 21.2723 0.433426 22.0576 1.06749 22.4378Z" fill="#FFC250"/>
<path d="M20 0C8.95469 0 0 8.95469 0 20C0 31.0453 8.95469 40 20 40C31.0453 40 40 31.0453 40 20C40 8.95469 31.0453 0 20 0ZM20 36.5711C10.8477 36.5711 3.42891 29.1523 3.42891 20C3.42891 10.8477 10.8477 3.42891 20 3.42891C29.1523 3.42891 36.5711 10.8477 36.5711 20C36.5711 29.1523 29.1523 36.5711 20 36.5711Z" fill="#DD5790"/>
<path d="M31.6783 5.52396L34.4717 8.31738L8.32168 34.4674L5.52826 31.674L31.6783 5.52396Z" fill="#DD5790"/>
</svg>
