<svg width="40" height="40" viewBox="0 0 40 40" fill="none" xmlns="http://www.w3.org/2000/svg">
<path d="M36.5492 20C36.5492 21.0258 39.9227 22.0328 39.7734 23.0164C39.2594 26.4148 37.8898 29.5336 35.8914 32.1445C35.7037 32.39 34.7896 32.6309 34.5909 32.8672C34.3034 33.2091 34.7252 33.5412 34.4156 33.8633C33.9607 34.3361 33.4828 34.7866 32.9837 35.213C29.4896 38.1978 24.9554 37.2613 20 37.2613C15.0831 37.2613 10.5808 38.2256 7.0982 35.2823C5.99797 34.3524 4.99945 33.3059 4.12187 32.1618C3.76187 31.6928 3.75242 30.3611 3.43461 29.8605C3.18758 29.4715 2.62351 29.9195 2.40312 29.5126C1.32656 27.5258 0.577342 25.3367 0.226561 23.0164C0.0773422 22.0328 2.03515 21.0258 2.03515 20C2.03515 19.4117 2.06094 18.8289 2.11015 18.2531H36.4742C36.5234 18.8289 36.5492 19.4117 36.5492 20Z" fill="#5E54AC"/>
<path d="M36.4742 18.2531H2.03516C2.17891 16.5992 0.562504 15.0031 1.08438 13.4898C3.78438 5.64062 11.2336 0 20 0C28.7664 0 36.2156 5.64062 38.9156 13.4898C39.4375 15.0031 36.3305 16.5992 36.4742 18.2531Z" fill="#FFD064"/>
<path d="M40 20C40 20.3274 39.9922 20.6531 39.9766 20.9766C39.943 21.6664 39.875 22.3469 39.7734 23.0164H0.226562C0.125 22.3469 0.0570313 21.6664 0.0234375 20.9766C0.0078125 20.6531 0 20.3274 0 20C0 18.6852 0.126563 17.4 0.369531 16.1555C0.546875 15.243 0.786719 14.3531 1.08438 13.4899H38.9156C39.2133 14.3531 39.4531 15.243 39.6305 16.1555C39.8734 17.4 40 18.6852 40 20Z" fill="#90D8F9"/>
<path d="M26.4604 2.27252C26.4563 2.26181 26.4522 2.25111 26.4477 2.24048C26.235 1.7233 25.7365 1.38931 25.1773 1.38931C25.177 1.38931 25.1764 1.38931 25.1759 1.38931C24.6163 1.38986 24.1177 1.72494 23.9058 2.24298C23.9022 2.25173 23.8987 2.26064 23.8953 2.26947L20.5513 11.0497C20.3209 11.6546 20.6245 12.3316 21.2293 12.5619C21.3666 12.6142 21.5075 12.6389 21.6462 12.6389C22.1184 12.6389 22.5634 12.3513 22.7416 11.8838L23.287 10.4519H27.0422L27.5813 11.8806C27.8098 12.486 28.4859 12.7918 29.0915 12.5631C29.6969 12.3346 30.0027 11.6585 29.7741 11.053L26.4604 2.27252ZM24.1796 8.1083L25.1732 5.49955L26.1577 8.1083H24.1796Z" fill="#DD5790"/>
<path d="M8.39352 5.98477C7.30962 5.585 6.29993 5.14977 5.97938 5.00961C5.76634 4.83344 5.77376 4.59063 5.78837 4.48883C5.80938 4.34281 5.91634 3.98563 6.45563 3.82313C7.67087 3.45703 8.80235 4.3393 8.84993 4.37703C9.35696 4.77922 10.094 4.69438 10.4963 4.18727C10.8985 3.68024 10.8136 2.94313 10.3066 2.54086C9.95172 2.25938 8.06587 0.890001 5.77962 1.57899C4.52805 1.95602 3.64251 2.94336 3.46845 4.15578C3.30493 5.29477 3.79876 6.39047 4.75712 7.01531C4.80891 7.04906 4.86321 7.07867 4.9197 7.10383C4.97126 7.1268 6.19938 7.67352 7.58243 8.18367C7.87626 8.29203 8.8261 8.69508 8.71258 9.3307C8.62797 9.80469 8.04454 10.2949 7.21462 10.2949C6.34571 10.2949 5.51024 9.94531 4.97954 9.35977C4.54493 8.88016 3.80376 8.84383 3.32423 9.27836C2.84462 9.71297 2.80821 10.4541 3.24282 10.9337C4.22485 12.0173 5.67251 12.6388 7.21462 12.6388C9.11993 12.6388 10.7202 11.4208 11.0198 9.74274C11.2458 8.47766 10.6745 6.82617 8.39352 5.98477Z" fill="#DD5790"/>
<path d="M37.5934 1.60165C37.0508 1.24853 36.3249 1.40212 35.9719 1.94446L34.1312 4.77212L32.2692 1.92056C31.9154 1.3786 31.1893 1.22603 30.6473 1.58001C30.1054 1.93384 29.9529 2.66001 30.3068 3.20189L32.9599 7.26516L32.9497 11.464C32.9481 12.1112 33.4715 12.6372 34.1187 12.6388H34.1216C34.7674 12.6388 35.2918 12.1159 35.2934 11.4698L35.3037 7.26696L37.9361 3.22314C38.2892 2.68071 38.1357 1.95478 37.5934 1.60165Z" fill="#DD5790"/>
<path d="M18.6051 1.38937H13.6869C13.0397 1.38937 12.515 1.91406 12.515 2.56125C12.515 3.20844 13.0397 3.73312 13.6869 3.73312H14.9642V11.467C14.9642 12.1141 15.4889 12.6388 16.1361 12.6388C16.7833 12.6388 17.308 12.1141 17.308 11.467V3.73312H18.6051C19.2523 3.73312 19.777 3.20844 19.777 2.56125C19.777 1.91406 19.2523 1.38937 18.6051 1.38937Z" fill="#DD5790"/>
<path d="M23.642 16.0608H23.2627V14.9806C23.2627 14.7029 23.0376 14.4777 22.7598 14.4777C22.4821 14.4777 22.257 14.7029 22.257 14.9806V16.0608H21.8856C21.6078 16.0608 21.3827 16.286 21.3827 16.5637C21.3827 16.8415 21.6078 17.0666 21.8856 17.0666H22.257V21.0689C22.257 21.3466 22.4821 21.5718 22.7598 21.5718C23.0376 21.5718 23.2627 21.3466 23.2627 21.0689V17.0666H23.642C23.9197 17.0666 24.1448 16.8415 24.1448 16.5637C24.1448 16.286 23.9197 16.0608 23.642 16.0608Z" fill="#5E54AC"/>
<path d="M19.8562 16.4255C19.5785 16.4255 19.3534 16.6507 19.3534 16.9284V17.083C18.977 16.822 18.5207 16.6685 18.029 16.6685C16.7442 16.6685 15.6989 17.7138 15.6989 18.9986C15.6989 20.2834 16.7442 21.3286 18.029 21.3286C18.5207 21.3286 18.977 21.1751 19.3534 20.9141V21.0687C19.3534 21.3465 19.5785 21.5716 19.8562 21.5716C20.134 21.5716 20.3591 21.3465 20.3591 21.0687V16.9282C20.3591 16.6507 20.1339 16.4255 19.8562 16.4255ZM18.029 20.3229C17.2988 20.3229 16.7046 19.7288 16.7046 18.9986C16.7046 18.2683 17.2988 17.6742 18.029 17.6742C18.7592 17.6742 19.3534 18.2683 19.3534 18.9986C19.3534 19.7289 18.7592 20.3229 18.029 20.3229Z" fill="#5E54AC"/>
<path d="M29.7042 24.7002C29.7036 24.6968 29.7029 24.6934 29.7023 24.69C29.6075 24.2245 29.21 23.8807 28.7357 23.8538C28.2619 23.8272 27.8277 24.1239 27.681 24.5757C27.6778 24.5855 27.6749 24.5955 27.672 24.6054L26.0191 30.4037L24.3057 24.5965C24.3027 24.5863 24.2995 24.5761 24.2961 24.5659C24.1448 24.1155 23.7074 23.8237 23.2338 23.8549C22.7597 23.8867 22.3659 24.2348 22.2761 24.7015C22.2755 24.7048 22.2749 24.708 22.2743 24.7112L20.8167 32.7867C20.7324 33.2538 21.0427 33.7008 21.5098 33.7851C21.9772 33.8693 22.4238 33.559 22.5081 33.0919L23.4616 27.8093L25.0284 33.1196C25.0314 33.1298 25.0346 33.1399 25.038 33.15C25.1815 33.5773 25.5798 33.8635 26.0302 33.8634H26.0356C26.4882 33.8611 26.8862 33.5704 27.0259 33.1398C27.0291 33.13 27.0321 33.1201 27.0349 33.1101L28.5477 27.8036L29.56 33.1006C29.6491 33.5668 30.0992 33.8726 30.5655 33.7833C31.0316 33.6943 31.3374 33.2441 31.2483 32.778L29.7042 24.7002Z" fill="#DDEAFB"/>
<path d="M9.86017 24.7118V33.0039C9.86017 33.4789 9.47579 33.8633 9.00079 33.8633C8.52657 33.8633 8.14142 33.4789 8.14142 33.0039V29.575H4.12189V32.1618C3.48204 31.3282 2.90704 30.443 2.40314 29.5125V24.7118C2.40314 24.2368 2.78829 23.8524 3.26251 23.8524C3.73751 23.8524 4.12189 24.2368 4.12189 24.7118V27.8563H8.14142V24.7118C8.14142 24.2368 8.52657 23.8524 9.00079 23.8524C9.47579 23.8524 9.86017 24.2368 9.86017 24.7118Z" fill="#DDEAFB"/>
<path d="M34.1344 25.6469V28.0359H36.482C36.957 28.0359 37.3414 28.4211 37.3414 28.8953C37.3414 29.3703 36.957 29.7547 36.482 29.7547H34.1344V32.1445H35.8914C35.4321 32.7453 34.9391 33.3188 34.4156 33.8633H33.275C32.8008 33.8633 32.4156 33.4789 32.4156 33.0039V24.7875C32.4156 24.3125 32.8008 23.9281 33.275 23.9281H36.7375C37.2117 23.9281 37.5969 24.3125 37.5969 24.7875C37.5969 25.2617 37.2117 25.6469 36.7375 25.6469H34.1344Z" fill="#DDEAFB"/>
<path d="M15.266 23.8522C12.5059 23.8522 10.2603 26.0977 10.2603 28.8578C10.2603 31.6179 12.5059 33.8635 15.266 33.8635C18.0262 33.8635 20.2717 31.618 20.2717 28.8578C20.2717 26.0976 18.0261 23.8522 15.266 23.8522ZM15.266 32.1448C13.4536 32.1448 11.9791 30.6702 11.9791 28.8578C11.9791 27.0454 13.4536 25.5709 15.266 25.5709C17.0784 25.5709 18.553 27.0455 18.553 28.8578C18.553 30.6702 17.0784 32.1448 15.266 32.1448Z" fill="#DDEAFB"/>
<path d="M28.8523 15.5297L26.9039 17.0797V20.9766H30.8008V17.0797L28.8523 15.5297ZM29.7312 19.7828H27.9734V18.025H29.7312V19.7828Z" fill="#B1E4F9"/>
<path d="M33.8477 15.5297L31.8992 17.0797V20.9766H35.7961V17.0797L33.8477 15.5297ZM34.7266 19.7828H32.9688V18.025H34.7266V19.7828Z" fill="#B1E4F9"/>
<path d="M39.6305 16.1555L38.8438 15.5297L36.8953 17.0797V20.9766H39.9766C39.9922 20.6531 40 20.3273 40 20C40 18.6852 39.8735 17.4 39.6305 16.1555ZM39.7227 19.7828H37.9649V18.025H39.7227V19.7828Z" fill="#B1E4F9"/>
<path d="M1.15625 15.5297L0.369531 16.1555C0.126563 17.4 0 18.6852 0 20C0 20.3273 0.0078125 20.6531 0.0234375 20.9766H3.10469V17.0797L1.15625 15.5297ZM2.03516 19.7828H0.277344V18.025H2.03516V19.7828Z" fill="#B1E4F9"/>
<path d="M6.15235 15.5297L4.20392 17.0797V20.9766H8.10079V17.0797L6.15235 15.5297ZM7.03126 19.7828H5.27345V18.025H7.03126V19.7828Z" fill="#B1E4F9"/>
<path d="M11.1477 15.5297L9.19922 17.0797V20.9766H13.0961V17.0797L11.1477 15.5297ZM12.0266 19.7828H10.2688V18.025H12.0266V19.7828Z" fill="#B1E4F9"/>
<path d="M32.9016 35.282C29.4188 38.2258 24.9164 40 20 40C17.9539 40 15.9805 39.693 14.1219 39.1219C11.6547 38.3641 9.39064 37.1422 7.43204 35.5578C7.31954 35.4672 7.20861 35.375 7.09845 35.282C7.62032 34.1086 8.79689 33.2906 10.1641 33.2906C11.5703 33.2906 12.7742 34.1562 13.2727 35.3836C13.7945 35.0484 14.4156 34.8531 15.082 34.8531C15.7485 34.8531 16.3695 35.0484 16.8914 35.3836C17.3899 34.1562 18.5938 33.2906 20 33.2906C21.4063 33.2906 22.6102 34.1562 23.1086 35.3836C23.6305 35.0484 24.2516 34.8531 24.918 34.8531C25.5844 34.8531 26.2055 35.0484 26.7274 35.3836C27.2258 34.1562 28.4297 33.2906 29.836 33.2906C31.2031 33.2906 32.3797 34.1086 32.9016 35.282Z" fill="#95D6A4"/>
<path d="M16.8914 35.3836C15.3453 34.4383 13.0485 36.6711 14.1219 39.1219C11.6547 38.3641 9.39064 37.1422 7.43204 35.5578C7.31954 35.4672 7.20861 35.375 7.09845 35.282C7.62032 34.1086 8.79689 33.2906 10.1641 33.2906C11.5703 33.2906 12.7742 34.1562 13.2727 35.3836C13.7945 35.0484 14.4156 34.8531 15.082 34.8531C15.7485 34.8531 16.3695 35.0484 16.8914 35.3836Z" fill="#78C2A4"/>
</svg>
